<?xml version="1.0" encoding="utf-8"?>
<svg version="1.1" id="Layer_1" xmlns="http://www.w3.org/2000/svg" xmlns:xlink="http://www.w3.org/1999/xlink" x="0px" y="0px"
	 viewBox="0 0 1920 1080" enable-background="new 0 0 1920 1080" xml:space="preserve">
<g>
	<path d="M163.477,100.395c6.93-0.42,13.88,0,20.81-0.32c6.46,24.83,13.28,49.57,19.68,74.42c-4.86-0.03-9.73,0.02-14.59-0.2
		c0.38,6.96-0.96,14.14,0.9,20.94c-0.39,0.52-1.16,1.55-1.55,2.06c-0.54-0.29-1.62-0.89-2.16-1.18c1.51-7.15,0.79-14.48,0.92-21.73
		c-6.96-0.36-13.93-0.54-20.9-0.44c-0.12,36.26,0.02,72.51-0.07,108.77c7.55,1.5,15.92,1.21,22.5,5.78c2.22,2.96-1.66,5.18-4.1,5.94
		c-11.04,3.56-22.87,3.63-34.32,2.87c-5.44-0.66-11.03-1.25-16.08-3.5c-1.82-0.69-2.92-2.34-4-3.85c6.29-6.31,15.86-5.57,23.96-7.23
		c0-36.3,0.03-72.6-0.01-108.91c-12.48-0.93-25.03,0.13-37.5-0.89c5.91-23.91,11.75-47.83,17.72-71.72
		C144.277,100.605,153.897,101.055,163.477,100.395z"/>
</g>
<g>
	<path d="M1371.927,116.465c3.83-0.43,7.7-0.09,11.56-0.2c3.29,0.14,7.11-0.67,9.86,1.69c2.59,1.8,3.16,5.05,3.99,7.87
		c-0.71,3.74-2.57,7.15-5.93,9.1c0,11.22-0.14,22.45,0.08,33.67c46.4,0.04,92.81,0.02,139.22,0.01c0.17-11.13,0-22.27,0.09-33.4
		c-5.5-2.32-8.25-9.58-4.88-14.71c2.35-5.26,8.88-4.16,13.55-4.23c4.53,0.37,9.87-1.22,13.65,2.08c2.53,2.75,3.66,6.94,2.41,10.54
		c-0.56,2.82-3.11,4.48-5.11,6.26c-0.04,32.04-0.04,64.08,0,96.12c2.65,1.26,6.11,2.68,6.39,6.09c0.22,3.77-3.58,5.67-6.38,7.19
		c-0.06,4.24-0.06,8.48,0,12.73c7.12,3.39,7.74,15.52-0.07,18.37c-5.91,0.86-11.97,0.27-17.92,0.37c-6.29-0.04-9.73-7.99-7.1-13.2
		c0.78-2.67,3.13-4.27,5.43-5.56c0-4.15,0-8.29,0.01-12.43c-6.11-0.02-12.21-0.04-18.3,0c0,5.22-1.54,12.59-7.99,12.92
		c-29.68,0.14-59.36,0.03-89.04,0.05c-3.13,0.3-5.83-1.82-7.39-4.34c-1.33-2.68-1.33-5.72-1.38-8.63c-5.1-0.02-10.2-0.05-15.28,0.03
		c-0.03,4.17-0.04,8.33,0,12.49c3.43,1.96,5.49,5.61,5.78,9.51c-0.39,3.87-2.65,8.08-6.71,8.99c-4.34,0.47-8.71,0.09-13.06,0.23
		c-2.9-0.05-6.17,0.35-8.55-1.64c-3.3-2.79-4.5-7.87-2.57-11.79c0.85-2.63,3.49-3.93,5.4-5.7c0.33-4.09,0.06-8.2,0.14-12.3
		c-2.46-1.46-4.71-3.22-6.68-5.27c0.04-4.05,3.21-6.76,6.67-8.21c0.04-31.94-0.01-63.87,0.02-95.81c-1.88-1.39-4.16-2.54-5.18-4.76
		C1363.637,125.675,1366.167,117.935,1371.927,116.465 M1391.477,183.165c-0.17,15.78-0.14,31.56-0.02,47.33
		c5.59,0.07,11.19,0.08,16.79-0.02c0.07-15.75,0.07-31.5-0.01-47.26C1402.647,183.075,1397.057,183.125,1391.477,183.165
		 M1416.847,183.205c-0.11,15.76-0.09,31.53-0.01,47.29c4.95,0.07,9.91,0.04,14.88,0.03c0.11-15.78,0.09-31.56,0.01-47.34
		C1426.757,183.105,1421.797,183.115,1416.847,183.205 M1440.387,183.145c0,15.79,0.01,31.59,0,47.38
		c4.98,0.02,9.97,0.04,14.96-0.02c0.21-15.77,0.23-31.55-0.01-47.32C1450.347,183.095,1445.367,183.145,1440.387,183.145
		 M1464.007,183.175c-0.12,15.78-0.09,31.55-0.02,47.33c5.05,0.05,10.12,0.07,15.19-0.04c0.09-15.75,0.11-31.5,0-47.25
		C1474.117,183.095,1469.057,183.115,1464.007,183.175 M1487.697,183.205c-0.06,15.76-0.08,31.52,0,47.28
		c4.92,0.09,9.84,0.04,14.77,0.04c0.03-15.79,0.02-31.59,0-47.39C1497.537,183.145,1492.607,183.095,1487.697,183.205
		 M1511.417,183.185c-0.04,15.78-0.12,31.56,0.04,47.33c6.41,0.05,12.83,0.02,19.26,0.01c0.1-15.79,0.1-31.58,0-47.36
		C1524.277,183.135,1517.837,183.095,1511.417,183.185z"/>
</g>
<g>
	<path d="M732.537,134.775c-0.25-3.82,2.88-7.75,6.88-7.53c47.69-0.03,95.38,0.02,143.07-0.02c4.14-0.48,7.76,3.55,7.4,7.61
		c0.05,31.35,0.06,62.7-0.01,94.05c0.36,3.21-2.33,5.62-5.43,5.46c-18.97,0.17-37.95-0.01-56.93,0.09c0.33,3.81,0.6,7.63,0.58,11.47
		c0.11,3.08,0.24,6.63,2.69,8.88c5.01,0.9,10.41-0.86,15.21,1.2c5,3.04,3.87,9.47,3.94,14.41c-25.81,0.02-51.62-0.01-77.43,0.02
		c0.12-4.36-0.97-9.54,2.41-13.02c2.64-3.03,6.92-2.37,10.51-2.39c2.5-0.19,5.91,0.87,7.33-1.92c3.05-5.72,1.09-12.51,1.95-18.68
		c-18.75-0.01-37.5,0.04-56.25-0.02c-3.14,0.25-6.27-2.01-5.88-5.38C732.477,197.595,732.547,166.185,732.537,134.775
		 M742.647,137.905c-0.09,26.35-0.01,52.7-0.03,79.05c45.74,0.07,91.48,0.01,137.22,0.02c-0.01-26.38,0.1-52.77-0.05-79.16
		C834.077,137.865,788.357,137.685,742.647,137.905z"/>
</g>
<g>
	<path d="M1074.717,132.055c1.09-0.79,2.47-0.67,3.76-0.72c39.08,0.06,78.15-0.05,117.23,0.05c0.42,0.41,1.26,1.21,1.68,1.61
		c-0.07,2.84,0.27,5.74-0.29,8.54c-0.73,2.13-3.56,1.22-5.27,1.76c0,39.34,0.01,78.68,0,118.02c-37.41-0.01-74.82,0.08-112.23-0.04
		c-0.07-39.36,0.01-78.72-0.04-118.08c-1.67-0.18-3.32-0.38-4.96-0.6C1074.247,139.105,1073.897,135.505,1074.717,132.055
		 M1082.967,143.075c-0.11,11.57-0.05,23.15-0.03,34.72c1.77,0.05,3.56,0.1,5.36,0.14c0.17-6.66,0.03-13.33,0.09-20
		c2.14-0.01,4.29-0.02,6.45-0.02c0.03,5.67-0.06,11.34,0,17.01c-0.13,1.39,0.45,2.64,1.17,3.8c0.85-5.81,0.21-11.69,0.47-17.53
		c2.24,0,4.49,0,6.74-0.01c0.03,5.58-0.04,11.16,0.06,16.74c0.55-0.04,1.65-0.11,2.2-0.15c0.01-6.28,0.01-12.57,0.01-18.86
		c1.3,0,2.61,0,3.94,0.01c0.55,6.36,0.31,12.74,0.46,19.11c0.33-5.73,0.2-11.47-0.08-17.19c1.8-0.02,3.6-0.04,5.42-0.05
		c0.2,5.88-0.48,11.83,0.46,17.67c0.7-6.54,0.15-13.12,0.35-19.68c2.09,0,4.2,0,6.32,0c0.2,6.13-0.22,12.29,0.23,18.4
		c0.4,0.33,1.19,0.98,1.58,1.31c0.5-4.74,0.25-9.5,0.31-14.24c2.29,0,4.59,0,6.9-0.01c0.08,4.85-0.26,9.72,0.37,14.54
		c1.9-5.74,0.46-11.98,0.89-17.92c1.14,0.02,2.29,0.05,3.46,0.08c0.02,5.85-0.12,11.71,0.12,17.56c0.52-0.31,1.58-0.91,2.11-1.22
		c0.39-7.12,0.01-14.26,0.16-21.39c2.51,0.01,5.02,0.02,7.55,0.02c0.09,6.95-0.29,13.91,0.15,20.84c0.49,0.43,1.45,1.28,1.94,1.71
		c0.43-5.51,0.15-11.04,0.23-16.55c0.85-0.01,2.55-0.01,3.4-0.02c0.21-0.47,0.62-1.4,0.83-1.87c1.08,0.04,2.19,0.08,3.31,0.13
		c0.18,6.08-0.52,12.18,0.03,18.25c0.43-3.12,0.33-6.27,0.42-9.4c2.69,0.01,5.38,0.01,8.09,0.01c0,3.23-0.07,6.47,0.41,9.68
		c0.29-0.49,0.87-1.46,1.17-1.95c0.43-4.93-0.01-9.89,0.22-14.83c1.93-0.01,3.88-0.01,5.84-0.01c0.02,4.31-0.09,8.62-0.01,12.93
		c-0.03,1.5,0.47,2.82,1.5,3.97c0.87-7.76,0.2-15.59,0.44-23.38c2.44-0.01,4.9-0.02,7.36-0.03c0.09,7.44-0.17,14.89,0.19,22.33
		c2.3,0.11,4.62,0.17,6.95,0.23c0.02-11.64,0.04-23.29,0-34.93C1153.327,143.065,1118.147,142.975,1082.967,143.075
		 M1082.917,183.745c0.01,11.37-0.04,22.74,0.03,34.11c2.1-0.02,4.22-0.05,6.35-0.09c0.23-4.05,0.21-8.1,0.22-12.15
		c2.07,0,4.16,0.01,6.26,0.02c0.52,4.29-1.31,9.26,1.26,13.06c0.68-6.49,0.22-13.02,0.48-19.53c2.03,0.02,4.08,0.03,6.14,0.05
		c0.09,5.87-0.16,11.75,0.1,17.61c0.63,0.4,1.89,1.18,2.52,1.58c0.35-5.39,0.13-10.79,0.25-16.18c1.43,0.11,2.87,0.23,4.32,0.36
		c-0.06-1.95-0.08-3.89-0.1-5.84c1.38,0.07,2.76,0.14,4.16,0.21c0.88,2.21,3.03,2.35,5.1,2.48c-0.01,6.12-0.15,12.24,0.1,18.36
		c0.8,0,2.42,0,3.22,0.01c0.01-4.62,0.01-9.24,0.01-13.85c2.61-0.49,6.75,1.38,7.75-2.11c0.62,0.03,1.86,0.07,2.48,0.1
		c0.14,5.48-0.38,11,0.26,16.46c1.07-7.1,0.24-14.34,0.59-21.49c2.39-0.02,4.8-0.01,7.22,0c0,6.99-0.04,13.97,0.02,20.96
		c8.16,0.01,16.32,0.16,24.48-0.1c0.09-6.96,0.03-13.91,0.04-20.86c2.58-0.02,5.17-0.01,7.78,0c-0.04,1.56-0.1,3.12-0.1,4.69
		c1.56-0.16,3.13-0.32,4.72-0.48c0.01,5.53,0.01,11.07,0,16.6c0.42,0.03,1.27,0.09,1.7,0.12c0.02-6.21,0.01-12.42,0.02-18.64
		c1.92-0.01,3.86-0.01,5.81-0.01c-0.01,6.26-0.01,12.53,0,18.79c0.6-0.06,1.8-0.17,2.4-0.23c0.03-11.33,0.02-22.67,0.02-34.01
		C1153.317,183.745,1118.117,183.735,1082.917,183.745 M1082.917,254.835c-0.08,1.33,0.42,2.58,0.82,3.82
		c0.62-3.22,0.48-6.5,0.51-9.75c2.16-0.01,4.34-0.01,6.52,0c0.05,3.05,0,6.12,0.24,9.18c0.16-5.54,0.06-11.08,0.15-16.62
		c2.13-0.02,4.27-0.02,6.42-0.02c0.02,5.41,0.01,10.81,0.03,16.22c0.43,0,1.29,0,1.72,0c0.03-6.58,0.01-13.16,0.03-19.74
		c2.13-0.02,4.26-0.02,6.41-0.01c0.3,6.84-0.53,13.73,0.18,20.54c0.57-5.65,0.65-11.34,0.7-17.02c1.3,0.01,2.62,0.02,3.96,0.03
		c0.13,5.69-0.44,11.44,0.41,17.08c0.53-7.52,0.07-15.07,0.25-22.6c1.68-0.03,3.38-0.04,5.1-0.06c0.37,7.63-0.29,15.3,0.41,22.91
		c1.55-6.71,0.32-13.72,0.72-20.54c2.18,0,4.38,0,6.59,0c-0.01,1.57-0.01,3.14,0.01,4.71c2.41-0.41,6.13,1.16,6.99-2.11
		c1.05,0.03,2.12,0.06,3.21,0.09c0.07-1.59,0.17-3.19,0.27-4.78c2.59,0.03,5.2,0.03,7.81,0.02c0.19,7.5-0.4,15.04,0.46,22.51
		c2.77-3.91,0.8-9.17,1.36-13.63c0.85,0,2.55,0,3.4,0c0.07,4.01-0.26,8.05,0.16,12.06c0.46,0.35,1.39,1.07,1.85,1.43
		c0.45-6.41,0.15-12.83,0.23-19.24c1.16-0.03,2.33-0.07,3.51-0.1c0.23,6.5-0.43,13.05,0.58,19.51c2.59-4.52,0.66-10.15,1.24-15.12
		c1.89,0,3.8,0.02,5.72,0.05c-0.03-0.42-0.1-1.24-0.14-1.65c1.87-0.01,3.75-0.01,5.64-0.01c0.04-1.95,0.09-3.89,0.14-5.83
		c2.52,0.03,5.04,0.03,7.57,0.04c0.26,7.5-0.54,15.06,0.5,22.51c1.41-6.02,0.38-12.29,0.69-18.41c0.84,0,2.51,0,3.35,0.01
		c0,4.85-0.07,9.71,0,14.57c-0.22,1.45,0.43,2.69,1.36,3.76c0.9-6.87,0.3-13.83,0.48-20.74c1.95,0.01,3.91,0.02,5.89,0.04
		c0.19,6.85-0.31,13.73,0.4,20.56c1.4-0.74,2.01-1.99,1.76-3.57c0-10.48-0.01-20.97,0-31.45c-35.2-0.02-70.4-0.02-105.6,0
		C1082.897,233.935,1082.907,244.385,1082.917,254.835z"/>
</g>
<g>
	<path d="M464.397,96.145c19.11-0.63,38.27,0.05,57.36-0.96c5.36,16.38,10.83,32.74,16.06,49.16c4.77,13.75,9.04,27.68,13.73,41.46
		c-12.69,0.02-25.39-0.04-38.08,0c-20.71-0.79-41.44-0.06-62.15-0.69c-10.35-0.66-20.73-0.11-31.1-0.35
		c8.76-29.38,17.77-58.68,26.65-88.03C452.707,96.575,458.587,96.935,464.397,96.145z"/>
	<path d="M477.287,190.965c6.36-0.02,12.71-0.02,19.07,0c0.05,3.67,0.05,7.34,0.02,11.01c-6.37,0-12.73,0.02-19.1,0
		C477.267,198.295,477.267,194.635,477.287,190.965z"/>
	<path d="M470.637,208.165c8.24-0.62,16.54-0.06,24.81-0.28c10.91-0.66,21.5,5.59,27.23,14.71c4.12,6.24,5.74,13.81,5.31,21.22
		c-0.41,8.69,1.3,17.88-2.51,26.05c-4.44,11.63-16.27,20.78-29.01,20.17c-7.01-0.03-14.02-0.03-21.03,0
		c-10.88,0.5-21.33-6.22-26.67-15.49c-4.66-7.67-5.27-16.97-5.09-25.72c-0.25-8.51,0.58-17.43,4.87-24.96
		C453.027,215.665,461.477,209.815,470.637,208.165z"/>
</g>
<g>
	<path d="M1765.487,102.125c4.81-1.73,9.97-1.16,14.99-1.23c6.98,0.07,13.97-0.14,20.96,0.09c12.36,0.72,22.44,12.66,21.96,24.87
		c-0.03,16.34-0.04,32.68,0.01,49.02c0.3,11.08-7.92,21.94-18.88,24.15c-3.84,1.07-7.91-0.15-11.72,0.89
		c-0.32,2.91-0.17,5.84-0.12,8.77c9.75,0.05,19.5,0.02,29.25,0.02c1.38,2.29,2.27,4.83,3.03,7.4c5.18-0.57,10.82-2.54,12.89-7.82
		c3.46-9.34,1.4-19.54,1.01-29.22c-0.64-0.07-1.93-0.19-2.57-0.25c-1.14-2.55-0.94-5.33,0.1-7.87c4.57,0.06,9.18-0.37,13.74,0.22
		c1.23,2.23,0.63,4.85,0.53,7.26c-0.83,0.18-2.49,0.55-3.33,0.73c0.16,10.53,1.73,21.22-0.58,31.63c-1.05,5.2-4.44,10.11-9.43,12.19
		c-3.92,1.77-8.29,1.91-12.5,1.88c-0.75,2.01-1.36,4.13-2.67,5.86c-1.34,1.02-3.17,0.47-4.68,0.66c-9.18-0.03-18.36-0.06-27.53,0.01
		c-0.05,12.73-0.03,25.47-0.01,38.21c8.35,0.96,16.47,3.74,23.52,8.36c-0.79,0.81-1.14,3.8-2.7,2.11
		c-6.85-4.42-14.77-6.79-22.87-7.37c-0.18,3.99,0.34,8.04-0.49,11.98c-1.26,0.41-2.19,0.02-2.77-1.17
		c-0.36-3.59-0.09-7.21-0.14-10.81c-8.18,0.34-16.03,3.02-22.91,7.42c-0.31-0.64-0.93-1.94-1.24-2.58
		c6.39-4.73,14.35-7.22,22.23-7.94c0.02-12.74,0.02-25.49,0-38.23c-10.7-0.09-21.39,0.13-32.08-0.13c-1.06-2.04-1.97-4.15-2.65-6.33
		c-6.23,0.03-13.36-0.85-17.63-5.92c-3.66-4.47-5.05-10.47-4.93-16.16c-0.15-7.78,0.13-15.56,0.24-23.34
		c-4.37-0.73-3.42-5.5-2.52-8.58c4.54-0.01,9.08-0.01,13.63,0.03c0.61,2.15,1.05,4.39,0.76,6.64c-1.1,0.92-2.46,1.41-3.71,2
		c0.07,7.1-0.49,14.19-0.25,21.29c0.04,3.24,1.08,6.45,2.83,9.18c2.48,3.72,7.04,5.51,11.4,5.59c0.93-2.23,1.14-4.91,2.99-6.66
		c9.69-0.65,19.45-0.06,29.18-0.29c0.03-3.04,0.03-6.08-0.05-9.12c-3.16-0.1-6.31,0.05-9.45-0.16c-11.9-1.19-21.63-12.71-21.12-24.6
		c0.02-16.32,0.02-32.64,0-48.96C1748.657,115.535,1755.837,105.505,1765.487,102.125z"/>
	<path d="M1755.247,280.675c1.6,0.16,3.26,0.24,4.89,0.57c0.2,1.8,0.15,3.62,0.13,5.44c-1.72,0.05-3.44,0.07-5.12,0.07
		C1755.077,284.725,1755.107,282.695,1755.247,280.675z"/>
	<path d="M1762.407,281.055c1.26-0.12,2.54-0.19,3.86-0.22c0.05,1.98,0.08,3.98,0.09,5.97c-1.65-0.05-3.27-0.1-4.87-0.17
		C1761.787,284.825,1760.707,282.315,1762.407,281.055z"/>
	<path d="M1806.137,281.695c1.73,0,3.48,0,5.25,0.03c-0.07,1.8-0.13,3.61-0.18,5.42c-1.69,0.05-3.38,0.06-5.03,0.04
		C1806.137,285.355,1806.127,283.525,1806.137,281.695z"/>
	<path d="M1812.787,281.685c1.56,0,3.14,0.01,4.75,0.02c-0.04,1.81-0.05,3.62-0.03,5.43c-1.59,0.06-3.15,0.07-4.7,0.02
		C1812.757,285.325,1812.767,283.505,1812.787,281.685z"/>
	<path d="M1780.587,285.815c1.58-0.04,3.18-0.07,4.8-0.07c-0.03,1.85-0.06,3.7-0.1,5.56c-1.58,0.1-3.15,0.1-4.7-0.02
		C1780.527,289.455,1780.547,287.635,1780.587,285.815z"/>
	<path d="M1787.237,285.675c1.66,0.07,3.36,0.17,5.06,0.29c0.02,1.59,0.05,3.18,0.11,4.77c-0.97,0.34-1.92,0.69-2.85,1.04
		c-0.58-0.26-1.75-0.77-2.33-1.03C1787.207,289.055,1787.207,287.365,1787.237,285.675z"/>
</g>
<g>
	<path d="M397.057,487.175c-3.59-6.55,1.75-15.67,9.3-15.43c52.69-0.13,105.39-0.02,158.09-0.06c4.47-0.29,8.94,2.55,10.55,6.73
		c1.28,2.5,0.74,5.35,0.5,8.03c-1.58,2.46-3.61,4.58-5.98,6.28c0,33.68,0,67.37,0,101.05c-5.02,0.04-10.03,0.02-15.04,0.03
		c0.01-20.66,0.02-41.33-0.02-61.99c-20.69-0.01-41.38,0.01-62.08-0.01c0.14-12.79-0.04-25.58-0.02-38.37
		c-23.29-0.07-46.58-0.06-69.86,0c-0.25,33.27,0.01,66.55-0.13,99.83c-4.53,0.01-9.06-0.01-13.58,0.01
		c-0.01-33.22-0.04-66.43,0.02-99.65C404.157,493.525,398.917,491.865,397.057,487.175 M499.397,499.815
		c-0.02,2.46-0.02,4.92-0.02,7.38c18.37,0,36.74-0.01,55.11,0.01c-0.01-2.47-0.01-4.93-0.01-7.39
		C536.117,499.785,517.757,499.785,499.397,499.815 M499.387,514.115c-0.01,2.59-0.01,5.19,0,7.79c18.36,0.01,36.72,0.01,55.08,0
		c0.01-2.6,0.01-5.2,0.01-7.79C536.117,514.105,517.747,514.095,499.387,514.115z"/>
	<path d="M426.477,498.905c20.69,0.01,41.37-0.04,62.06,0.02c0,4.69,0.01,9.37,0,14.07c-20.68,0.08-41.36,0.01-62.04,0.04
		C426.467,508.315,426.477,503.605,426.477,498.905z"/>
</g>
<g>
	<path d="M1127.577,445.095c6.06-4.29,15.09-2.75,19.57,3.13c2.78,3.2,3.34,7.5,4.11,11.51c15.74,11.89,31.89,23.25,47.67,35.1
		c7.86,0.22,15.75-0.15,23.62,0.17c5.54,0.13,9.57,5.58,9.23,10.9c0.02,36.99,0.01,73.98,0.01,110.97
		c0.28,5.31-3.69,10.83-9.28,10.89c-57.35,0.09-114.7-0.01-172.04,0.04c-3.87,0.3-7.62-2.01-9.46-5.33
		c-1.53-2.97-1.09-6.39-1.14-9.59c0.04-36.03-0.02-72.07,0.03-108.09c-0.05-5.08,4.29-9.78,9.43-9.79
		c7.4-0.34,14.81,0.08,22.21-0.17c1.3,0.09,2.24-0.97,3.28-1.6c15.07-11.2,30.3-22.19,45.42-33.33
		C1120.127,454.155,1122.557,448.195,1127.577,445.095 M1096.037,494.765c26.42,0.2,52.85,0.24,79.28-0.02
		c-10.03-7.8-20.44-15.09-30.68-22.61c-1.58,0.93-3.19,1.81-4.78,2.71c-4.64,0.48-9.48,0.32-13.38-2.54
		C1116.337,479.795,1106.077,487.135,1096.037,494.765 M1059.787,509.445c-5.33,2.06-9,7.71-8.71,13.43c0.03,26,0.01,52,0.01,78
		c0.09,6.9,6.2,13.61,13.37,13.04c47.67,0,95.33,0,143,0c7.07,0.4,12.92-6.22,12.98-13.04c0.09-26,0.01-52,0.03-78
		c0.21-5.25-2.61-10.75-7.54-12.9c-2.89-1.7-6.37-1.04-9.54-1.17c-45,0.02-90,0.02-135,0
		C1065.517,508.885,1062.527,508.435,1059.787,509.445z"/>
	<path d="M1061.627,514.955c7.88-0.75,15.88-0.09,23.81-0.31c40.69,0.01,81.38-0.01,122.07,0.01c3.9-0.27,7.52,3.29,7.14,7.24
		c0.02,26.3,0.01,52.6,0.01,78.9c0.49,3.96-3.3,7.45-7.16,7.12c-47.69,0.08-95.38,0.02-143.07,0.03c-4.53,0.54-8.11-3.68-7.94-7.99
		c-0.03-25.37,0.01-50.74-0.01-76.11C1056.217,520.225,1057.937,516.125,1061.627,514.955z"/>
</g>
<g>
	<path d="M752.967,464.395c4.28-2.77,9.6-2.43,14.46-2.47c8.84,0.14,17.69-0.21,26.51,0.18c8.05,0.19,14.99,7.71,14.69,15.71
		c-0.12,12.49,0.23,24.99-0.21,37.48c-2.04,6.12-7.32,11.39-14.03,11.68c-10.99,0.25-21.98,0.06-32.97,0.09
		c-8.2,0.26-15.67-6.93-15.89-15.1c-0.1-11.01,0-22.03-0.05-33.04C745.247,473.235,747.987,467.335,752.967,464.395z"/>
	<path d="M824.997,462.475c8.74-1.13,17.61-0.27,26.41-0.54c6.61,0.08,14.5-0.92,19.51,4.41c5,4.35,5.5,11.41,5.13,17.57
		c-0.04,9-0.01,18.01-0.01,27.01c-0.02,4.24-1,9.07-4.6,11.75c-3.11,2.41-7.25,2.41-10.99,2.42c-11.65-0.06-23.3,0.04-34.95-0.05
		c-4.64,0.18-9.75-2.04-11.52-6.58c-1.06-3.09-1.62-6.37-1.53-9.64c0.07-10,0-20,0.04-29.99
		C812.717,471.555,817.457,463.885,824.997,462.475z"/>
	<path d="M693.967,504.275c3.83-5.09,10.37-7.1,16.42-7.96c9.49-0.81,19.03-0.27,28.54-0.4c-0.01,19.31-0.03,38.62,0.03,57.93
		c2.29,0.05,4.58,0.06,6.89,0.04c2.67,5.88,9.44,8.41,15.52,8.57c10.37,0.04,20.75,0.04,31.13,0c6.42,0.03,12.99-2.84,16.3-8.55
		c1.37-0.01,2.75-0.01,4.15-0.01c2.98,6.07,10.1,8.61,16.5,8.59c10.02-0.01,20.04,0,30.06-0.01c5.56-0.1,11.72-1.79,14.98-6.65
		c1.95-3.41,6.54-1.4,9.73-1.93c0.06-19.32,0.02-38.64,0.02-57.97c7.78,0.01,15.56-0.13,23.34,0.06c6.2,0.14,12.59,1.44,17.78,5
		c2.9,1.96,5.34,5.21,5.13,8.87c0.05,29.02-0.01,58.05,0.03,87.07c0.45,2.95-1.97,6.07-5.04,5.86c-5.93-0.02-11.88,0.21-17.79-0.12
		c-3.44-1.06-4.16-5.1-3.57-8.19c-61.92,0.06-123.84,0-185.76,0.03c0.34,3-0.07,6.63-3.16,8.07c-5.91,0.53-11.88,0.13-17.8,0.23
		c-2.11,0.23-4.16-1.06-4.97-2.99c-1.3-2.5,0.03-5.31-0.09-7.95c0.07-27.01,0.02-54.02,0.02-81.03
		C692.357,508.555,692.417,506.105,693.967,504.275z"/>
	<path d="M758.847,530.365c2.45-0.66,5.03-0.44,7.55-0.48c9.05,0.11,18.11-0.12,27.16,0.1c3.76,0.84,8.23,1.74,10.47,5.24
		c0.77,5.18,0.29,10.5,0.31,15.73c0.09,2.44-2.04,4.13-4.04,5.04c-5.9,2.69-12.55,1.59-18.82,1.82c-7.66-0.19-15.36,0.42-22.98-0.38
		c-3.58-0.83-8.37-2.36-8.79-6.65c-0.13-4.6-0.21-9.22,0.06-13.81C750.337,532.545,755.287,531.455,758.847,530.365z"/>
	<path d="M826.737,530.225c9.53-0.76,19.16-0.07,28.73-0.33c5.52-0.18,12.14,0.61,15.81,5.24c1,3.1,0.3,6.49,0.51,9.71
		c-0.19,2.83,0.53,5.93-0.82,8.56c-2.76,3.34-7.42,4.14-11.51,4.38c-9.34,0.09-18.68-0.01-28.01,0.05
		c-4.59,0.03-9.65-0.6-13.13-3.87c-1.63-1.98-1.26-4.71-1.35-7.07c0.14-3.65-0.33-7.36,0.38-10.95
		C818.667,532.095,823.297,531.235,826.737,530.225z"/>
</g>
<g>
	<path d="M1414.697,427.965c30.25,0.12,60.49,0.03,90.74,0.05c2.74-0.23,6.01,1.7,5.91,4.72c0.09,17.04-0.01,34.09,0.04,51.13
		c-0.08,4.02,0.38,8.14-0.77,12.06c-4.34,0.89-8.79,0.54-13.17,0.59c-8.66,0.03-17.32-0.07-25.98,0.06
		c0.05,2.24,0.12,4.49,0.26,6.74c0.62,2.09,0.38,4.58,1.9,6.33c3.87,0.76,9.07-1.32,11.7,2.6c0.38,2.37,0.19,4.78,0.23,7.17
		c-16.38,0.04-32.76,0.01-49.14,0.02c0.18-3.06-0.65-7.2,2.46-9.08c2.97-1.03,6.26-0.25,9.36-0.73c3.75-3.24,1.72-8.82,2.3-13.12
		c-11.7,0.01-23.41,0.03-35.11,0c-2.05,0.12-4.76-1.2-4.29-3.61c-0.05-20.02-0.07-40.05,0.01-60.08
		C1410.707,430.295,1412.847,429.065,1414.697,427.965 M1417.387,434.825c-0.02,16.87-0.02,33.75,0,50.62
		c29.12-0.01,58.24,0.03,87.36-0.02c0.02-16.87,0.07-33.75-0.03-50.62C1475.607,434.835,1446.497,434.795,1417.387,434.825z"/>
	<path d="M1374.897,537.785c-1.7-6.4,3.91-13.01,10.44-12.87c50.39-0.04,100.78,0,151.18-0.01c4.62-0.12,9.17,2.89,10.71,7.29
		c1,3.95,0.16,8.69-3.27,11.25c-2.29,2.21-5.6,2.37-8.56,2.71c-0.06,31.91,0.03,63.83-0.05,95.74c-4.42,0.02-8.83,0.05-13.23-0.11
		c-0.02-31.93,0.05-63.86-0.04-95.8c-22.4-0.06-44.8-0.05-67.19,0c-0.13,12.27-0.04,24.54-0.05,36.82c-19.9,0.02-39.79,0-59.68,0.01
		c-0.17,19.87-0.03,39.74-0.08,59.61c-4.86,0.01-9.73,0.01-14.58,0.02c-0.04-32.41,0.01-64.82-0.03-97.23
		C1378.177,543.125,1375.417,541.055,1374.897,537.785 M1395.117,552.245c-0.04,2.34-0.05,4.69-0.04,7.04
		c17.81,0,35.61,0.05,53.42-0.02c-0.05-2.35-0.08-4.7-0.14-7.04C1430.607,552.205,1412.857,552.165,1395.117,552.245
		 M1395.117,566.225c-0.05,2.37-0.05,4.75-0.02,7.14c17.76,0.04,35.53,0.06,53.3-0.01c0.01-2.37,0-4.75,0-7.11
		C1430.637,566.115,1412.877,566.155,1395.117,566.225z"/>
	<path d="M1458.497,550.905c19.96,0,39.93-0.01,59.9,0c-0.01,4.72,0.01,9.45-0.02,14.17c-19.95,0.08-39.91,0.08-59.85,0.01
		C1458.477,560.355,1458.507,555.625,1458.497,550.905z"/>
</g>
<g>
	<path d="M103.497,465.825c-0.36-7.36,5.26-15.01,12.88-15.48c13.35-0.09,26.71-0.01,40.06-0.03c0.51,20.16,0.32,40.35,0.49,60.53
		c0.7,17.04,0.37,34.12,0.44,51.18c-17.95,0-35.9,0.03-53.84-0.01C103.467,529.955,103.517,497.885,103.497,465.825
		 M142.537,506.395c0.01,7.42-0.13,14.85,0.09,22.27c2.65,1.23,5.64,1.28,8.27-0.01c-0.12-7.59,0.73-15.31-0.43-22.81
		C147.877,504.975,144.987,505.185,142.537,506.395z"/>
	<path d="M162.777,450.315c13.56,0,27.13-0.01,40.7-0.01c8.03-0.27,14.24,7.91,13.91,15.54c-0.04,32.07,0.03,64.13-0.04,96.2
		c-17.83-0.03-35.66,0.01-53.5-0.02c0.24-16.39-0.51-32.75-0.37-49.13C163.407,492.025,163.237,471.175,162.777,450.315
		 M169.687,505.825c-0.58,7.64-0.41,15.35-0.02,23c2.63,0.22,5.27,0.23,7.91,0.14c0.32-7.72,0.76-15.56-0.18-23.23
		C174.867,505.245,172.167,505.045,169.687,505.825z"/>
	<path d="M103.517,569.165c17.95,0.05,35.9,0.04,53.85,0c-0.03,11.54,0.53,23.07,0.48,34.62c-9.82,0.04-19.63-0.01-29.45,0.02
		c-0.09,3.54,0.29,7.12-0.31,10.64c-1.84,0.72-3.83,0.54-5.76,0.56c-0.17-3.62,0.11-7.26-0.32-10.85
		c-4.09-0.58-8.68,0.23-12.11-2.63c-5.14-3.36-6.88-9.86-6.42-15.68C103.507,580.275,103.487,574.725,103.517,569.165
		 M125.487,573.965c-0.05,1.28-0.09,2.57-0.12,3.86c3.33,0.1,6.66,0.1,9.99,0.08c-0.01-1.31-0.03-2.62-0.07-3.92
		C132.017,573.915,128.757,573.915,125.487,573.965z"/>
	<path d="M163.837,569.205c17.84-0.04,35.69,0.01,53.53-0.03c-0.04,6.92,0.09,13.84-0.02,20.76c-0.45,6.76-5.44,12.5-11.96,14.21
		c-0.06,3.45,0.25,6.94-0.28,10.37c-1.84,0.75-3.84,0.46-5.76,0.33c-0.14-3.59,0.08-7.19-0.22-10.76
		c-11.56-0.68-23.19-0.08-34.77-0.31C163.877,592.255,163.897,580.725,163.837,569.205 M185.077,573.955
		c-0.02,1.31-0.02,2.63,0,3.96c3.47,0.03,6.95,0.03,10.41-0.28c-0.21-1.25-0.48-2.48-0.83-3.68
		C191.467,573.915,188.267,573.935,185.077,573.955z"/>
</g>
<g>
	<path d="M1736.397,429.965c1.74-1.4,3.73-2.66,6.11-2.36c29.63,0.02,59.26-0.01,88.9,0.02c3.01-0.4,5.74,2.11,5.37,5.2
		c0.14,19-0.02,38,0.08,57c-0.07,1.88,0.15,3.91-0.87,5.6c-3.04,1.26-6.39,0.88-9.58,0.93c-9.84,0-19.67-0.07-29.5,0.03
		c0.16,1.89,0.32,3.77,0.5,5.66c-7.19,0.06-14.37,0.01-21.55,0.03c0.1-1.9,0.26-3.8,0.41-5.69c-11.6-0.12-23.21,0.02-34.8-0.06
		c-2.17,0-5.6-0.48-5.07-3.43C1736.337,471.925,1736.367,450.945,1736.397,429.965 M1742.567,434.545c-0.02,16.9-0.02,33.8,0,50.7
		c29.3,0.1,58.6,0.04,87.91,0.03c0.01-16.92-0.01-33.84,0.01-50.75C1801.177,434.535,1771.877,434.485,1742.567,434.545z"/>
	<path d="M1776.007,505.905c7.01-0.01,14.03,0.05,21.05-0.02c0.64,1.3,1.32,2.6,2.02,3.91c3.27,0.13,6.7-0.44,9.88,0.51
		c3.02,1.86,2.13,6.07,2.49,9.09c-16.64,0.07-33.29,0.07-49.93-0.01c0.06-2.87,0.46-5.71,1.28-8.46c3.35-1.56,7.13-1.07,10.73-1.15
		C1774.347,508.485,1775.177,507.205,1776.007,505.905z"/>
	<path d="M1700.327,538.825c-2.81-6.42,3.23-14.16,10.04-13.9c44.02-0.06,88.05-0.01,132.08-0.02c7.48,0.19,15.01-0.4,22.47,0.27
		c7.34,1.15,11.14,10.91,6.31,16.63c-2.29,3.36-6.42,4-10.14,4.49c-0.27,32.04-0.03,64.09-0.11,96.14c-4.45-0.01-8.89,0-13.32,0
		c-0.01-20.73,0.03-41.45-0.01-62.17c-25.4-0.02-50.79-0.02-76.18,0c-0.21,20.73-0.02,41.47-0.1,62.21c-4.81-0.02-9.6,0-14.39-0.02
		c-0.03-4.17-0.01-8.34-0.05-12.5c-12.22-0.08-24.44-0.06-36.66-0.02c-0.05,4.26,0.02,8.53-0.1,12.8
		c-4.78,0.11-9.55,0.06-14.32,0.05c-0.05-32.36,0.16-64.73-0.1-97.09C1703.977,543.375,1701.057,541.815,1700.327,538.825
		 M1710.047,578.985c18.92,0.21,37.84,0.04,56.77,0.08c-0.02-8.04,0.13-16.08-0.09-24.11c-18.94-0.33-37.88-0.06-56.81-0.14
		C1709.907,562.865,1709.587,570.945,1710.047,578.985 M1773.007,570.775c24.76,0.02,49.52,0.06,74.29-0.02
		c0.05-4.65,0.03-9.29,0-13.94c-24.76-0.02-49.52-0.01-74.27,0C1772.917,561.465,1772.947,566.115,1773.007,570.775
		 M1709.847,591.805c-0.01,8.01,0,16.01,0,24.02c18.99,0.19,37.98,0.04,56.98,0.08c0.01-8.04,0-16.07,0-24.11
		C1747.837,591.805,1728.837,591.785,1709.847,591.805z"/>
	<path d="M1737.427,561.645c2.32,0.11,5.57-0.04,6.4,2.77c2.41,3.66-2.66,8.71-6.31,6.32
		C1733.907,569.025,1735.107,563.985,1737.427,561.645z"/>
	<path d="M1735.247,605.675c0.01-2.67-0.2-6.56,3.16-7.27c3.98-1.35,7.96,4.43,5,7.55
		C1741.487,609.005,1737.357,607.855,1735.247,605.675z"/>
</g>
<g>
	<path d="M1709.497,786.905c6.13-8.45,16.48-13.82,26.96-13.55c34.37,0.07,68.73-0.07,103.1,0.07
		c17.31,1.06,31.23,17.35,31.24,34.39c0,42.7,0,85.4,0,128.1c-0.08,15.08-10.73,29.01-25.03,33.56c0.03,5.11,0.01,10.21,0.02,15.33
		c-7.18,0-14.36,0.01-21.54-0.01c-0.1-4.61,0.19-9.22-0.12-13.8c-0.83-1.24-2.44-0.8-3.64-0.92c-24.13,0.07-48.25-0.03-72.37,0.06
		c-0.28,4.87-0.15,9.76-0.14,14.65c-7.18,0.06-14.34,0.01-21.5,0.03c0-5.19,0-10.37-0.01-15.54c-7.16-3.08-14.16-7.36-18.2-14.25
		c-4.8-7.07-6.36-15.78-5.8-24.2c0.01-40.98,0.01-81.96,0-122.95C1702.447,800.385,1704.977,792.885,1709.497,786.905
		 M1717.557,808.855c-0.02,9.73-0.01,19.46,0.01,29.2c45.98,0.04,91.95,0.03,137.92,0.01c0-9.75,0.02-19.5,0.01-29.25
		c0.29-10.67-9.32-20.4-20.12-19.43c-10.93,0.03-21.84-0.02-32.76,0.03c-0.38,2.74,0.61,6.09-1.38,8.34
		c-9.96,0.65-19.99,0.29-29.97,0.15c-0.86-2.77-0.89-5.67-0.97-8.53c-11.29,0.05-22.58,0-33.87,0.02
		C1726.037,789.125,1717.517,798.745,1717.557,808.855 M1717.577,848.825c-0.05,15.71-0.01,31.43-0.02,47.15
		c45.97,0.03,91.95,0.02,137.92,0c0.04-15.71,0.01-31.42,0.01-47.13c-17.61-0.07-35.21-0.04-52.82-0.02
		c-0.15,1.89-0.13,3.82-0.53,5.69c-0.94,1.73-3.12,1.13-4.68,1.32c-7.01-0.06-14.01,0-21,0.08c-1.96-0.14-4.24,0.26-5.72-1.28
		c-0.34-1.92-0.33-3.88-0.41-5.8C1752.747,848.785,1735.157,848.805,1717.577,848.825 M1717.567,906.825
		c-0.02,8.69,0,17.37-0.03,26.06c-0.13,5.99,1.79,12.37,6.4,16.42c3.55,3.45,8.55,5.24,13.49,5c31-0.05,62.01-0.02,93.01-0.02
		c4.83-0.05,10.02,0.57,14.43-1.92c6.58-3.12,10.59-10.35,10.62-17.53c0.03-9.34,0.01-18.68-0.01-28.02
		c-17.61-0.01-35.21-0.02-52.81,0c-0.38,2.21,0.32,4.99-1.47,6.7c-7.9,0.7-15.88,0.08-23.8,0.32c-2.24-0.17-4.89,0.51-6.64-1.23
		c-0.37-1.92-0.35-3.88-0.44-5.8C1752.727,906.815,1735.147,906.785,1717.567,906.825z"/>
</g>
<g>
	<path d="M46.617,836.905c75.83-0.01,151.66-0.01,227.49,0c-0.09,22.32,0.12,44.64-0.1,66.95c-2.48,0.2-4.96,0.25-7.44,0.24
		c-0.04,3.89-0.02,7.79-0.05,11.69c-5.84,0.03-11.69,0.04-17.53-0.01c-0.04-3.91-0.01-7.81-0.07-11.71
		c-59.29-0.05-118.59-0.03-177.88,0c-0.15,3.9-0.11,7.81-0.08,11.73c-5.82,0.03-11.64,0-17.45,0.02c-0.12-3.91-0.14-7.82-0.18-11.73
		c-2.23-0.05-4.46-0.07-6.69-0.07C46.607,881.645,46.647,859.275,46.617,836.905 M56.687,857.715c-0.01,8.73-0.02,17.46,0,26.2
		c31.92,0,63.85,0,95.77-0.01c0.06-8.74,0.01-17.48,0.02-26.22C120.547,857.635,88.617,857.595,56.687,857.715 M168.657,857.675
		c0.03,8.72-0.08,17.44,0.05,26.16c31.74,0.13,63.48,0.13,95.22,0c-0.11-8.7,0.33-17.42-0.21-26.09
		C232.037,857.545,200.337,857.675,168.657,857.675z"/>
</g>
<g>
	<path d="M1077.047,849.255c-0.17-2.63-1.38-7.69,2.46-8.02c37.97-0.11,75.95,0.01,113.93-0.06c1.53,0.02,3.23-0.09,4.61,0.81
		c0.57,2.51,0.54,5.16,0.06,7.7c-1.48,0.58-3.09,0.48-4.62,0.53c-8.21-0.04-16.4-0.08-24.6,0.01c-0.13,21.07-0.02,42.15-0.05,63.22
		c-2.34-0.01-4.67-0.01-6.99,0c-0.04-17.84-0.48-35.66-0.66-53.5c-16.56-0.34-33.13-0.06-49.7-0.15
		c-0.42,17.88-0.5,35.76-0.44,53.65c-2.53-0.01-5.04,0-7.54,0.03c-0.03-21.1,0.01-42.19-0.03-63.28
		c-7.02-0.02-14.04-0.02-21.06,0.02C1080.597,850.105,1078.557,850.495,1077.047,849.255 M1112.107,847.065
		c-0.02,2.43-0.02,4.85,0.01,7.29c16.13-0.21,32.26,0.05,48.38-0.49c-0.03-2.25-0.04-4.5-0.09-6.74
		C1144.307,846.955,1128.207,847.075,1112.107,847.065z"/>
	<path d="M1049.447,849.755c-0.11-4.45,5.51-4.7,7.92-1.98c0.02,9.02-0.01,18.04,0.02,27.06c10.67,0.15,21.34,0.03,32.01,0.04
		c1.86-0.04,3.73,0.23,5.54,0.72c0.02,2.68,0.05,5.38-0.24,8.06c-0.79,0.08-2.38,0.24-3.17,0.32c-0.04,10.94,0.02,21.88-0.02,32.82
		c-2.73,0.01-5.45,0.01-8.16,0c-0.02-3.91,0.01-7.81-0.06-11.71c-8.53,0.06-17.08-0.34-25.58,0.18c-0.61,3.81-0.28,7.69-0.32,11.54
		c-2.68,0-5.36,0-8.03-0.01C1049.407,894.455,1049.217,872.095,1049.447,849.755 M1057.397,883.935
		c-0.01,5.62-0.12,11.25,0.14,16.88c8.57,0.09,17.14,0.03,25.71,0.08c0.14-5.69,0.11-11.38,0.05-17.06
		C1074.667,883.825,1066.027,883.655,1057.397,883.935z"/>
	<path d="M1214.657,846.755c1.93-0.51,4.23-1.58,6-0.04c2.05,1.33,1.6,4.04,1.75,6.14c-0.05,21.31,0.02,42.62-0.04,63.93
		c-2.8,0.02-5.59,0.02-8.38,0.02c0.01-3.91,0.02-7.82-0.04-11.73c-8.49-0.03-16.97-0.09-25.44,0.03c-0.16,3.9-0.13,7.81-0.12,11.72
		c-2.7-0.02-5.4-0.03-8.08-0.03c0.03-10.83-0.08-21.65,0.05-32.47c-1.66-0.55-4.47-0.94-3.96-3.35c-0.16-2.29-0.32-6.12,2.93-6.01
		c11.56-0.21,23.12,0.08,34.68-0.14C1214.317,865.475,1213.247,856.025,1214.657,846.755 M1188.397,883.815
		c-0.01,5.65-0.02,11.31,0.01,16.98c8.51,0.15,17.04,0.18,25.56-0.04c0.04-5.62,0.03-11.24,0.01-16.85
		C1205.447,883.685,1196.927,883.835,1188.397,883.815z"/>
</g>
<g>
	<path d="M754.977,801.995c7.08-1.28,14.31-0.88,21.47-0.92c29.88-0.35,59.76-0.11,89.64-0.17c11.06,11.08,22.12,22.17,33.22,33.21
		c0.55,4.95,0.84,9.92,1.03,14.9c-2.07,2.76-4.67,5.08-7.02,7.59c-0.77,0.01-2.32,0.03-3.09,0.03c0.41,26.72,0.03,53.45,0.19,80.18
		c0.01,3.87,0.05,8.23-2.68,11.31c-3.61,4.65-11.29,5-15.47,0.97c-3.23-2.74-3.93-7.26-3.81-11.26c0.14-27.07-0.16-54.15,0.16-81.22
		c-38.52,0.04-77.04-0.03-115.55,0.03c-0.02,28.09-0.02,56.17,0,84.26c0.24,5.74-4.79,11.18-10.61,11.03
		c-5.95,0.38-11.12-5.19-10.97-11.01c-0.03-28.08,0.01-56.17-0.01-84.26c-0.64-0.03-1.92-0.09-2.56-0.12
		c-2.31-2.5-4.5-5.09-6.86-7.52c0.41-4.98,0.43-9.98,1-14.93C733.647,823.345,744.367,812.725,754.977,801.995z"/>
	<path d="M756.507,862.885c4.62,0.01,9.25,0.01,13.89,0.02c-0.04,11.02,0.05,22.04-0.04,33.06c-0.12,4.25-4.89,8.24-9.06,6.37
		c-3.16-0.91-4.73-4.23-4.73-7.3C756.407,884.315,756.577,873.595,756.507,862.885z"/>
	<path d="M851.247,862.925c4.45-0.03,8.9-0.04,13.35-0.01c-0.05,11.01,0.1,22.02-0.06,33.03c0.06,3.04-2.24,5.77-5.08,6.63
		c-4.08,1.18-8.36-2.58-8.15-6.72C851.157,884.885,851.297,873.905,851.247,862.925z"/>
</g>
<g>
	<path d="M409.577,832.775c-4.04-3.91-1.08-12.13,4.75-11.86c47.71-0.02,95.43-0.02,143.15-0.01c5.39-0.15,7.45,6.24,6.09,10.63
		c-3.19,4.07-8.47,3.65-13.08,3.6c-0.2,7.95-0.03,15.9-0.12,23.86c-42.96-0.01-85.91,0.01-128.86-0.01
		c-0.3-7.95-0.06-15.9-0.18-23.84C417.407,834.775,412.527,836.095,409.577,832.775 M478.877,848.005
		c4.58,0.03,9.15,0.04,13.72-0.01c0.02-1.81,0-3.62-0.04-5.41c-4.52-0.11-9.04-0.09-13.55-0.03
		C478.917,844.365,478.877,846.185,478.877,848.005z"/>
	<path d="M421.397,866.205c42.99-0.02,85.99,0.02,128.99-0.02c0,7.7,0.02,15.39-0.01,23.09c-43.01,0-86.01-0.01-129.02,0
		C421.377,881.585,421.317,873.895,421.397,866.205 M478.977,880.225c4.53,0.08,9.06,0.09,13.59-0.03c0.04-1.91,0.04-3.81,0.01-5.7
		c-4.54-0.15-9.09-0.16-13.63-0.01C478.907,876.385,478.917,878.305,478.977,880.225z"/>
	<path d="M421.377,895.945c43-0.08,86.01-0.02,129.01-0.03c-0.01,12,0.03,24.01-0.02,36.02c-4.28,0-8.57,0-12.85,0
		c-0.02-3.71-0.02-7.42-0.04-11.12c-34.45-0.01-68.91-0.01-103.36,0c-0.02,3.39-0.01,6.78-0.02,10.18c-4.24-0.01-8.47,0.01-12.7,0
		C421.327,919.305,421.357,907.625,421.377,895.945 M480.557,910.595c4.26,0.31,8.6,0.34,12.86-0.07c0.27-1.7,1.31-4.99-1.04-5.48
		c-4.14-0.35-8.31-0.11-12.46-0.06C479.917,906.795,478.207,909.775,480.557,910.595z"/>
</g>
<g>
	<path d="M1413.487,794.925c31.88,0.09,63.77-0.07,95.65,0.08c0.16,55.99,0.03,111.98,0.07,167.97c-31.9,0.03-63.8,0.02-95.7,0.01
		C1413.467,906.965,1413.507,850.945,1413.487,794.925 M1420.977,803.035c-0.1,50.63-0.03,101.25-0.04,151.88
		c26.85,0.04,53.7,0.03,80.55,0.01c-0.06-50.63,0.15-101.26-0.11-151.88C1474.577,802.945,1447.777,802.975,1420.977,803.035z"/>
	<path d="M1434.477,820.955c17.78,0.04,35.57,0.01,53.35,0.02c0.01,8.66,0.01,17.31,0.01,25.97c-17.78,0.02-35.55,0.03-53.33,0
		C1434.447,838.285,1434.497,829.615,1434.477,820.955 M1458.467,831.825c1.45,1.82,3.79,0.75,5.64,0.26
		c0.48-1.19,0.99-2.38,1.52-3.55c-1.15-1.51-1.91-4.04-4.23-3.8C1457.687,824.205,1455.667,829.505,1458.467,831.825z"/>
	<path d="M1434.487,863.905c17.79,0.02,35.58-0.01,53.37,0.01c-0.04,8.7-0.02,17.39-0.02,26.09c-17.78,0.01-35.55-0.01-53.32,0.01
		C1434.437,881.305,1434.487,872.605,1434.487,863.905 M1459.927,867.955c-1.97,1.1-3.86,3.61-2.28,5.82c1,2.94,5.71,2.96,7.04,0.23
		C1466.667,871.125,1463.217,866.775,1459.927,867.955z"/>
	<path d="M1434.477,911.025c17.78,0.06,35.57,0,53.36,0.04c0.01,8.71-0.02,17.43,0.01,26.14c-17.78,0.02-35.56,0-53.34,0.01
		C1434.437,928.485,1434.497,919.755,1434.477,911.025 M1459.007,915.525c-3.55,1.92-1.6,8.24,2.51,7.4
		c2.41,0.41,3.02-2.59,4.28-4.03C1464.567,916.475,1461.897,913.105,1459.007,915.525z"/>
</g>
</svg>
